<?xml version="1.0" encoding="UTF-8"?>
<svg width="752pt" height="752pt" version="1.1" viewBox="0 0 752 752" xmlns="http://www.w3.org/2000/svg">
 <defs>
  <clipPath id="a">
   <path d="m139.21 139.21h473.58v473.58h-473.58z"/>
  </clipPath>
 </defs>
 <g clip-path="url(#a)">
  <path d="m598.8 362.01h-62.809c-2.7422-32.961-15.652-64.258-36.945-89.566l14.219-14.164c2.6953-2.6094 4.2305-6.1953 4.2578-9.9492 0.027344-3.7539-1.457-7.3633-4.1133-10.012-2.6562-2.6523-6.2695-4.1211-10.023-4.0859-3.7539 0.039062-7.332 1.582-9.9375 4.2852l-14.164 14.164c-25.309-21.293-56.605-34.203-89.566-36.945v-62.527c0-7.7305-6.2656-13.996-13.992-13.996-7.7305 0-13.996 6.2656-13.996 13.996v62.75c-32.855 2.8086-64.031 15.734-89.23 37.004l-14.164-14.164c-5.4805-5.3125-14.211-5.25-19.617 0.14062-5.4062 5.3945-5.4922 14.121-0.19922 19.621l14.219 14.219c-21.164 25.234-33.996 56.406-36.719 89.23h-62.809c-7.7305 0-13.996 6.2656-13.996 13.992 0 7.7305 6.2656 13.996 13.996 13.996h62.809c2.8633 32.832 15.762 63.984 36.945 89.23l-14.164 14.164c-5.4219 5.4922-5.4219 14.32 0 19.816 5.4805 5.4492 14.336 5.4492 19.816 0l14.164-14.164c25.246 21.18 56.398 34.082 89.23 36.945v62.809c0 7.7305 6.2656 13.996 13.992 13.996 7.7305 0 13.996-6.2656 13.996-13.996v-62.809c32.855-2.8047 64.031-15.734 89.23-37l14.219 14.219c2.625 2.625 6.1914 4.0977 9.9062 4.0859 3.7031 0.023437 7.2539-1.4531 9.8555-4.0859 2.6289-2.6289 4.1094-6.1914 4.1094-9.9102s-1.4805-7.2812-4.1094-9.9062l-14.164-14.164c21.27-25.199 34.195-56.375 37-89.23h62.754c7.7305 0 13.996-6.2656 13.996-13.996 0-7.7266-6.2656-13.992-13.996-13.992zm-239.31-22.391v-0.003907c-3.4414 9.1641-10.758 16.336-19.984 19.594-3.582 1.3438-7.3711 2.0469-11.195 2.0703-8.9102 0-17.453-3.5352-23.75-9.8359-6.3008-6.2969-9.8398-14.844-9.8398-23.75 0.03125-3.8242 0.73047-7.6133 2.0742-11.195 3.0117-9.3516 10.027-16.879 19.145-20.543 3.8438-1.5352 7.9492-2.3164 12.09-2.2969 8.9062 0 17.453 3.5391 23.75 9.8359 6.3008 6.3008 9.8359 14.844 9.8359 23.75 0.11719 4.2422-0.60547 8.4688-2.125 12.43z"/>
 </g>
</svg>
